<svg t="1681348102842" class="icon" viewBox="0 0 1024 1024" version="1.1" xmlns="http://www.w3.org/2000/svg" p-id="1865" width="200" height="200"><path d="M112 112m128 0l544 0q128 0 128 128l0 544q0 128-128 128l-544 0q-128 0-128-128l0-544q0-128 128-128Z" fill="#FFFFFF" p-id="1866"></path><path d="M160 160m112 0l512 0q112 0 112 112l0 512q0 112-112 112l-512 0q-112 0-112-112l0-512q0-112 112-112Z" fill="#FFE07A" p-id="1867"></path><path d="M784 928H240c-79.4 0-144-64.6-144-144V240c0-79.4 64.6-144 144-144h544c79.4 0 144 64.6 144 144v544c0 79.4-64.6 144-144 144zM240 128a112.12 112.12 0 0 0-112 112v544a112.12 112.12 0 0 0 112 112h544a112.12 112.12 0 0 0 112-112V240a112.12 112.12 0 0 0-112-112z" fill="#333333" p-id="1868"></path><path d="M352 656l-48 80h368s144 0 144-192c0 0 0-176-160-176H400l64-96h-96L256 416l112 112h96l-64-80h256s80 0 80 112c0 0 0 96-80 96z" fill="#FFFFFF" p-id="1869"></path><path d="M375.16 705.69L368 720h304s128 0 128-176c0 0 0-176-144-176H400l16-48h-14.87a32 32 0 0 0-26.63 14.25l-42.67 64a32 32 0 0 0 0 35.5l42.67 64A32 32 0 0 0 401.13 512H448l-48-64h256s80 0 80 128c0 0 0 112-80 112H403.78a32 32 0 0 0-28.62 17.69z" fill="#FF9580" p-id="1870"></path><path d="M672 752H304a16 16 0 0 1-13.72-24.23l48-80A16 16 0 0 1 352 640h304c62.87 0 64-76.77 64-80 0-40.1-10.76-68.37-32-84a62.15 62.15 0 0 0-32.13-12H433.29l43.2 54A16 16 0 0 1 464 544h-96a16 16 0 0 1-11.31-4.69l-112-112a16 16 0 0 1-1.32-21.13l112-144A16 16 0 0 1 368 256h96a16 16 0 0 1 13.31 24.88L429.9 352H656c91.17 0 134.37 53 154.57 97.38C831.76 496 832 542.06 832 544c0 46.3-8.14 86-24.19 118.16-13.2 26.41-31.69 47.65-54.93 63.15C713.3 751.7 673.67 752 672 752z m-339.74-32H672c0.26 0 32.76-0.53 64.35-22.14C778.59 669 800 617.21 800 544c0-0.39-0.35-41.87-19-82.23-23.74-51.6-65.82-77.77-125-77.77H400a16 16 0 0 1-13.31-24.88L434.1 288h-58.27L277.3 414.67 374.63 512h56.08l-43.2-54A16 16 0 0 1 400 432h256c2.56 0 25.72 0.47 49.18 16.89C726.54 463.85 752 495.26 752 560c0 1.11-0.13 27.51-11.23 54.15-6.85 16.45-16.45 29.68-28.52 39.34C696.9 665.77 678 672 656 672H361.06z" fill="#333333" p-id="1871"></path></svg>