<svg t="1681264460507" class="icon" viewBox="0 0 1024 1024" version="1.1" xmlns="http://www.w3.org/2000/svg" p-id="2233" width="200" height="200"><path d="M240 928h576a128 128 0 0 0 128-128V224A128 128 0 0 0 816 96H432a128 128 0 0 0-128 128v640a64 64 0 0 1-64 64" fill="#FFFFFF" p-id="2234"></path><path d="M304 912h512.46a112 112 0 0 0 112-112V256a112 112 0 0 0-112-112h-352.3a112 112 0 0 0-112 112L352 864a48 48 0 0 1-48 48" fill="#82AAFA" p-id="2235"></path><path d="M304 928h-96A128 128 0 0 1 80 800V544a128 128 0 0 1 128-128h95z" fill="#FFFFFF" p-id="2236"></path><path d="M288 912h-48a112 112 0 0 1-112-112V576a112 112 0 0 1 112-112h16a32 32 0 0 1 32 32z" fill="#FFE07A" p-id="2237"></path><path d="M816 944H240v-32a48.05 48.05 0 0 0 48-48V224c0-79.4 64.6-144 144-144h384c79.4 0 144 64.6 144 144v576c0 79.4-64.6 144-144 144z m-512-32h512a112.12 112.12 0 0 0 112-112V224a112.12 112.12 0 0 0-112-112H432a112.12 112.12 0 0 0-112 112v640a79.57 79.57 0 0 1-16 48z" fill="#333333" p-id="2238"></path><path d="M448 320m16 0l288 0q16 0 16 16l0 0q0 16-16 16l-288 0q-16 0-16-16l0 0q0-16 16-16Z" fill="#333333" p-id="2239"></path><path d="M448 512m16 0l288 0q16 0 16 16l0 0q0 16-16 16l-288 0q-16 0-16-16l0 0q0-16 16-16Z" fill="#333333" p-id="2240"></path><path d="M448 704m32 0l128 0q32 0 32 32l0 0q0 32-32 32l-128 0q-32 0-32-32l0 0q0-32 32-32Z" fill="#333333" p-id="2241"></path><path d="M256 944h-48c-79.4 0-144-64.6-144-144V544c0-79.4 64.6-144 144-144h95v32h-95A112.12 112.12 0 0 0 96 544v256a112.12 112.12 0 0 0 112 112h48z" fill="#333333" p-id="2242"></path></svg>