<svg t="1681264605865" class="icon" viewBox="0 0 1024 1024" version="1.1" xmlns="http://www.w3.org/2000/svg" p-id="2572" width="200" height="200"><path d="M80 368h864v384a128 128 0 0 1-128 128H208A128 128 0 0 1 80 752V368z" fill="#FFFFFF" p-id="2573"></path><path d="M128 416m112 0l576 0q112 0 112 112l0 224q0 112-112 112l-576 0q-112 0-112-112l0-224q0-112 112-112Z" fill="#7FEBD9" p-id="2574"></path><path d="M816 896H208c-79.4 0-144-64.6-144-144V352h896v400c0 79.4-64.6 144-144 144zM96 384v368a112.12 112.12 0 0 0 112 112h608a112.12 112.12 0 0 0 112-112V384z" fill="#333333" p-id="2575"></path><path d="M208 144h608a128 128 0 0 1 128 128v96H80v-96a128 128 0 0 1 128-128z" fill="#FFFFFF" p-id="2576"></path><path d="M240 193h576a112 112 0 0 1 112 112v47H175a47 47 0 0 1-47-47 112 112 0 0 1 112-112z" fill="#82AAFA" p-id="2577"></path><path d="M960 384H64V272c0-79.4 64.6-144 144-144h608c79.4 0 144 64.6 144 144zM96 352h832v-80a112.12 112.12 0 0 0-112-112H208A112.12 112.12 0 0 0 96 272z" fill="#333333" p-id="2578"></path><path d="M272 80m64 0l0 0q64 0 64 64l0 32q0 64-64 64l0 0q-64 0-64-64l0-32q0-64 64-64Z" fill="#FFFFFF" p-id="2579"></path><path d="M304 113m40.5 0l0 0q40.5 0 40.5 40.5l0 31q0 40.5-40.5 40.5l0 0q-40.5 0-40.5-40.5l0-31q0-40.5 40.5-40.5Z" fill="#C4F08B" p-id="2580"></path><path d="M336 256a80.09 80.09 0 0 1-80-80v-32a80 80 0 0 1 160 0v32a80.09 80.09 0 0 1-80 80z m0-160a48.05 48.05 0 0 0-48 48v32a48 48 0 0 0 96 0v-32a48.05 48.05 0 0 0-48-48z" fill="#333333" p-id="2581"></path><path d="M624 80m64 0l0 0q64 0 64 64l0 32q0 64-64 64l0 0q-64 0-64-64l0-32q0-64 64-64Z" fill="#FFFFFF" p-id="2582"></path><path d="M656 113m40.5 0l0 0q40.5 0 40.5 40.5l0 31q0 40.5-40.5 40.5l0 0q-40.5 0-40.5-40.5l0-31q0-40.5 40.5-40.5Z" fill="#C4F08B" p-id="2583"></path><path d="M688 256a80.09 80.09 0 0 1-80-80v-32a80 80 0 0 1 160 0v32a80.09 80.09 0 0 1-80 80z m0-160a48.05 48.05 0 0 0-48 48v32a48 48 0 0 0 96 0v-32a48.05 48.05 0 0 0-48-48z" fill="#333333" p-id="2584"></path><path d="M224 640m32 0l160 0q32 0 32 32l0 0q0 32-32 32l-160 0q-32 0-32-32l0 0q0-32 32-32Z" fill="#333333" p-id="2585"></path></svg>