<svg t="1681264757335" class="icon" viewBox="0 0 1024 1024" version="1.1" xmlns="http://www.w3.org/2000/svg" p-id="6280" width="200" height="200"><path d="M706.1504 950.528H326.9632c-87.1424 0-157.7472-70.6048-157.7472-157.7472V239.4112h694.7328v553.3696c-0.0512 87.1424-70.656 157.7472-157.7984 157.7472z" fill="#FF5D50" p-id="6281"></path><path d="M872.3456 194.56h-205.5168c-10.0352-74.0352-73.4208-131.1232-150.2208-131.1232S376.3712 120.5248 366.3872 194.56H160.768c-24.7808 0-44.8512 20.0704-44.8512 44.8512s20.0704 44.8512 44.8512 44.8512h711.5776c24.7808 0 44.8512-20.0704 44.8512-44.8512S897.0752 194.56 872.3456 194.56zM418.3552 714.5984c-24.7808 0-44.8512-20.0704-44.8512-44.8512V490.752c0-24.7808 20.0704-44.8512 44.8512-44.8512s44.8512 20.0704 44.8512 44.8512v178.9952c0 24.7808-20.0704 44.8512-44.8512 44.8512zM610.56 714.5984c-24.7808 0-44.8512-20.0704-44.8512-44.8512V490.752c0-24.7808 20.0704-44.8512 44.8512-44.8512s44.8512 20.0704 44.8512 44.8512v178.9952c0 24.7808-20.1216 44.8512-44.8512 44.8512z" fill="#FFDF99" p-id="6282"></path></svg>