<svg t="1681348512268" class="icon" viewBox="0 0 1024 1024" version="1.1" xmlns="http://www.w3.org/2000/svg" p-id="2368" width="200" height="200"><path d="M80 464h864v288a128 128 0 0 1-128 128H208A128 128 0 0 1 80 752V464z" fill="#FFFFFF" p-id="2369"></path><path d="M128 512m112 0l576 0q112 0 112 112l0 128q0 112-112 112l-576 0q-112 0-112-112l0-128q0-112 112-112Z" fill="#FF8591" p-id="2370"></path><path d="M816 896H208c-79.4 0-144-64.6-144-144V448h896v304c0 79.4-64.6 144-144 144zM96 480v272a112.12 112.12 0 0 0 112 112h608a112.12 112.12 0 0 0 112-112V480z" fill="#333333" p-id="2371"></path><path d="M944 448H80V272a128 128 0 0 1 128-128h179a64 64 0 0 1 48.16 21.86l73.76 84.28A64 64 0 0 0 557 272h259a128 128 0 0 1 128 128z" fill="#FFFFFF" p-id="2372"></path><path d="M928 448H128V304a112 112 0 0 1 112-112h117a64 64 0 0 1 48.16 21.86l73.76 84.28A64 64 0 0 0 527 320h289a112 112 0 0 1 112 112z" fill="#FFBF80" p-id="2373"></path><path d="M960 480H64V272a144 144 0 0 1 144-144h179a80 80 0 0 1 60.2 27.32l73.76 84.29A48 48 0 0 0 557 256h259a144 144 0 0 1 144 144zM208 160A112 112 0 0 0 96 272v176h832v-48a112 112 0 0 0-112-112H557a80 80 0 0 1-60.2-27.32l-73.76-84.29A48 48 0 0 0 387 160z" fill="#333333" p-id="2374"></path><path d="M192 704m32 0l128 0q32 0 32 32l0 0q0 32-32 32l-128 0q-32 0-32-32l0 0q0-32 32-32Z" fill="#333333" p-id="2375"></path></svg>