<svg t="1681348288455" class="icon" viewBox="0 0 1024 1024" version="1.1" xmlns="http://www.w3.org/2000/svg" p-id="2036" width="200" height="200"><path d="M128 64m144 0l416 0q144 0 144 144l0 608q0 144-144 144l-416 0q-144 0-144-144l0-608q0-144 144-144Z" fill="#FFFFFF" p-id="2037"></path><path d="M192 129m112 0l384 0q112 0 112 112l0 575q0 112-112 112l-384 0q-112 0-112-112l0-575q0-112 112-112Z" fill="#FFBF80" p-id="2038"></path><path d="M736 736m-208 0a208 208 0 1 0 416 0 208 208 0 1 0-416 0Z" fill="#FFFFFF" p-id="2039"></path><path d="M760 760m-184 0a184 184 0 1 0 368 0 184 184 0 1 0-368 0Z" fill="#FF8591" p-id="2040"></path><path d="M320 320m16 0l288 0q16 0 16 16l0 0q0 16-16 16l-288 0q-16 0-16-16l0 0q0-16 16-16Z" fill="#333333" p-id="2041"></path><path d="M320 512m16 0l95 0q16 0 16 16l0 0q0 16-16 16l-95 0q-16 0-16-16l0 0q0-16 16-16Z" fill="#333333" p-id="2042"></path><path d="M736 960a224 224 0 1 1 158.39-65.61A222.53 222.53 0 0 1 736 960z m0-416c-105.87 0-192 86.13-192 192s86.13 192 192 192 192-86.13 192-192-86.13-192-192-192z" fill="#333333" p-id="2043"></path><path d="M718.22 832.94a64.21 64.21 0 0 1-45.28-18.75l-39.57-39.56a32 32 0 0 1 45.26-45.26l39.56 39.57 73.51-85.77a32 32 0 0 1 48.6 41.66l-73.51 85.76a64.22 64.22 0 0 1-46.14 22.3c-0.81 0.03-1.65 0.05-2.43 0.05z" fill="#333333" p-id="2044"></path><path d="M479.84 960H272c-79.4 0-144-64.6-144-144V208c0-79.4 64.6-144 144-144h416c79.4 0 144 64.6 144 144v207.59a16 16 0 0 1-32 0V208A112.12 112.12 0 0 0 688 96H272a112.12 112.12 0 0 0-112 112v608a112.12 112.12 0 0 0 112 112h207.84a16 16 0 0 1 0 32z" fill="#333333" p-id="2045"></path></svg>