<svg t="1681348657055" class="icon" viewBox="0 0 1024 1024" version="1.1" xmlns="http://www.w3.org/2000/svg" p-id="2538" width="200" height="200"><path d="M144 80m128 0l480 0q128 0 128 128l0 608q0 128-128 128l-480 0q-128 0-128-128l0-608q0-128 128-128Z" fill="#FFFFFF" p-id="2539"></path><path d="M752 960H272c-79.4 0-144-64.6-144-144V208c0-79.4 64.6-144 144-144h480c79.4 0 144 64.6 144 144v608c0 79.4-64.6 144-144 144zM272 96a112.12 112.12 0 0 0-112 112v608a112.12 112.12 0 0 0 112 112h480a112.12 112.12 0 0 0 112-112V208A112.12 112.12 0 0 0 752 96z" fill="#333333" p-id="2540"></path><path d="M752.11 928H303.89a112 112 0 0 1-112-112l0.11-576.4a112 112 0 0 1 112.1-112l448 0.27A112 112 0 0 1 864 239.88l0.09 576.1A112 112 0 0 1 752.11 928z" fill="#FFBF80" p-id="2541"></path><path d="M416 336m32 0l80 0q32 0 32 32l0 32q0 32-32 32l-80 0q-32 0-32-32l0-32q0-32 32-32Z" fill="#FFFFFF" p-id="2542"></path><path d="M464 384m16 0l48 0q16 0 16 16l0 0q0 16-16 16l-48 0q-16 0-16-16l0 0q0-16 16-16Z" fill="#FF8591" p-id="2543"></path><path d="M528 448h-80a48.05 48.05 0 0 1-48-48v-32a48.05 48.05 0 0 1 48-48h80a48.05 48.05 0 0 1 48 48v32a48.05 48.05 0 0 1-48 48z m-80-96a16 16 0 0 0-16 16v32a16 16 0 0 0 16 16h80a16 16 0 0 0 16-16v-32a16 16 0 0 0-16-16z" fill="#333333" p-id="2544"></path><path d="M304 480m32 0l80 0q32 0 32 32l0 32q0 32-32 32l-80 0q-32 0-32-32l0-32q0-32 32-32Z" fill="#FFFFFF" p-id="2545"></path><path d="M352 528m16 0l48 0q16 0 16 16l0 0q0 16-16 16l-48 0q-16 0-16-16l0 0q0-16 16-16Z" fill="#FF8591" p-id="2546"></path><path d="M416 592h-80a48.05 48.05 0 0 1-48-48v-32a48.05 48.05 0 0 1 48-48h80a48.05 48.05 0 0 1 48 48v32a48.05 48.05 0 0 1-48 48z m-80-96a16 16 0 0 0-16 16v32a16 16 0 0 0 16 16h80a16 16 0 0 0 16-16v-32a16 16 0 0 0-16-16z" fill="#333333" p-id="2547"></path><path d="M304 192m32 0l80 0q32 0 32 32l0 32q0 32-32 32l-80 0q-32 0-32-32l0-32q0-32 32-32Z" fill="#FFFFFF" p-id="2548"></path><path d="M352 240m16 0l48 0q16 0 16 16l0 0q0 16-16 16l-48 0q-16 0-16-16l0 0q0-16 16-16Z" fill="#FF8591" p-id="2549"></path><path d="M416 304h-80a48.05 48.05 0 0 1-48-48v-32a48.05 48.05 0 0 1 48-48h80a48.05 48.05 0 0 1 48 48v32a48.05 48.05 0 0 1-48 48z m-80-96a16 16 0 0 0-16 16v32a16 16 0 0 0 16 16h80a16 16 0 0 0 16-16v-32a16 16 0 0 0-16-16z" fill="#333333" p-id="2550"></path><path d="M512 640H320a32 32 0 0 0-32 32v80a32 32 0 0 0 32 32h192a32 32 0 0 0 32-32v-80a32 32 0 0 0-32-32z" fill="#FFFFFF" p-id="2551"></path><path d="M528 688H352a16 16 0 0 0-16 16v48a16 16 0 0 0 16 16h176a16 16 0 0 0 16-16v-48a16 16 0 0 0-16-16z" fill="#A89BFA" p-id="2552"></path><path d="M528 800H320a48.05 48.05 0 0 1-48-48v-80a48.05 48.05 0 0 1 48-48h208a48.05 48.05 0 0 1 48 48v80a48.05 48.05 0 0 1-48 48zM320 656a16 16 0 0 0-16 16v80a16 16 0 0 0 16 16h208a16 16 0 0 0 16-16v-80a16 16 0 0 0-16-16z" fill="#333333" p-id="2553"></path></svg>