<svg t="1681267457194" class="icon" viewBox="0 0 1024 1024" version="1.1" xmlns="http://www.w3.org/2000/svg" p-id="16821" width="200" height="200"><path d="M784.53 640H776a168 168 0 0 1-143.14-256h-0.07a176 176 0 1 0-241.58 0h-0.07A168 168 0 0 1 248 640h-8.53A95.47 95.47 0 0 0 144 735.47v17.06A95.47 95.47 0 0 0 239.47 848h545.06A95.47 95.47 0 0 0 880 752.53v-17.06A95.47 95.47 0 0 0 784.53 640z" fill="#FFFFFF" p-id="16822"></path><path d="M640 384a160 160 0 0 0 128 256h15.88A80 80 0 0 1 864 720v32a80 80 0 0 1-80 80H272a80 80 0 0 1-80-80 80 80 0 0 1 80.09-80H320c80 0 144-103.63 144-192a160.22 160.22 0 0 0-7.32-48H528z" fill="#82AAFA" p-id="16823"></path><path d="M538.4 282.4m-149.6 0a149.6 149.6 0 1 0 299.2 0 149.6 149.6 0 1 0-299.2 0Z" fill="#FF8591" p-id="16824"></path><path d="M160 929m16 0l671 0q16 0 16 16l0 0q0 16-16 16l-671 0q-16 0-16-16l0 0q0-16 16-16Z" fill="#333333" p-id="16825"></path><path d="M592 768H448a32 32 0 0 1 0-64h144a32 32 0 0 1 0 64z" fill="#333333" p-id="16826"></path><path d="M784.53 624H776c-83.81 0-152-68.19-152-152a151.67 151.67 0 0 1 21.79-78.44A191.42 191.42 0 0 0 704 256c0-105.87-86.13-192-192-192s-192 86.13-192 192a191.46 191.46 0 0 0 58.21 137.57A151.61 151.61 0 0 1 400 472c0 83.81-68.19 152-152 152h-8.53A111.59 111.59 0 0 0 128 735.47 128.68 128.68 0 0 0 256.53 864h510.94A128.68 128.68 0 0 0 896 735.47 111.59 111.59 0 0 0 784.53 624zM352 256c0-88.22 71.78-160 160-160s160 71.78 160 160-71.78 160-160 160-160-71.78-160-160z m415.47 576H256.53A96.64 96.64 0 0 1 160 735.47 79.56 79.56 0 0 1 239.47 656H248c101.46 0 184-82.54 184-184a184.58 184.58 0 0 0-5.32-44 191.64 191.64 0 0 0 170.64 0 184.58 184.58 0 0 0-5.32 44c0 101.46 82.54 184 184 184h8.53A79.56 79.56 0 0 1 864 735.47 96.64 96.64 0 0 1 767.47 832z" fill="#333333" p-id="16827"></path></svg>