<svg t="1681264554174" class="icon" viewBox="0 0 1024 1024" version="1.1" xmlns="http://www.w3.org/2000/svg" p-id="2401" width="200" height="200"><path d="M80 208v251a128 128 0 0 0 37.49 90.51l352 352a128 128 0 0 0 181 0l251-251a128 128 0 0 0 0-181l-352-352A128 128 0 0 0 459 80H208A128 128 0 0 0 80 208z" fill="#FFFFFF" p-id="2402"></path><path d="M128 240v193.61a112 112 0 0 0 32.8 79.19l352 352a112 112 0 0 0 158.4 0l195-195a112 112 0 0 0 1.38-157L529 162.21A112 112 0 0 0 448.45 128H240a112 112 0 0 0-112 112z" fill="#F28DF2" p-id="2403"></path><path d="M560 955a143 143 0 0 1-101.82-42.2l-352-352A143 143 0 0 1 64 459V208c0-79.4 64.6-144 144-144h251a143 143 0 0 1 101.8 42.18l352 352a144 144 0 0 1 0 203.64l-251 251A143.05 143.05 0 0 1 560 955zM208 96A112.12 112.12 0 0 0 96 208v251a111.29 111.29 0 0 0 32.8 79.2l352 352a112 112 0 0 0 158.4 0l251-251a112 112 0 0 0 0-158.4l-352-352A111.29 111.29 0 0 0 459 96z" fill="#333333" p-id="2404"></path><path d="M360 360m-104 0a104 104 0 1 0 208 0 104 104 0 1 0-208 0Z" fill="#FFFFFF" p-id="2405"></path><path d="M376 376m-72 0a72 72 0 1 0 144 0 72 72 0 1 0-144 0Z" fill="#82DAFA" p-id="2406"></path><path d="M360 480a120 120 0 1 1 120-120 120.13 120.13 0 0 1-120 120z m0-208a88 88 0 1 0 88 88 88.1 88.1 0 0 0-88-88zM608 736a32 32 0 0 1-22.63-54.63l96-96a32 32 0 0 1 45.26 45.26l-96 96A31.9 31.9 0 0 1 608 736z" fill="#333333" p-id="2407"></path></svg>